<svg xmlns="http://www.w3.org/2000/svg" width="1600" height="520" viewBox="0 0 1600 520">
<rect width="100%" height="100%" fill="#ffffff"/>
<text x="800.0" y="60" text-anchor="middle" font-size="34" font-weight="700" fill="#1966ab" font-family="Inter, Segoe UI, Arial, sans-serif">Java Version Timeline</text>
<text x="800.0" y="88" text-anchor="middle" font-size="16" fill="#444444" font-family="Inter, Segoe UI, Arial, sans-serif">Sharif University — AP Course</text>
<line x1="120" y1="300" x2="1480" y2="300" stroke="#1966ab" stroke-width="4" stroke-linecap="round" opacity="0.9"/>
<line x1="120.0" y1="282" x2="120.0" y2="318" stroke="#1966ab" stroke-width="3" />
<circle cx="120.0" cy="300" r="10" fill="#ffffff" stroke="#1966ab" stroke-width="3"/>
<rect x="95.00" y="178.00" width="40.00" height="22.00" rx="4.00" fill="none" stroke="#1966ab" stroke-width="2.00"/>
<path d="M 136.00 184.00 q 10.00 6.00 0 12.00" fill="none" stroke="#1966ab" stroke-width="2.00"/>
<path d="M 90.00 202.00 h 60.00" fill="none" stroke="#1966ab" stroke-width="2.00" stroke-linecap="round"/>
<path d="M 102.00 166.00 q 4.00 -8.00 0 -16.00" fill="none" stroke="#1966ab" stroke-width="2.00" stroke-linecap="round"/>
<path d="M 114.00 166.00 q 4.00 -8.00 0 -16.00" fill="none" stroke="#1966ab" stroke-width="2.00" stroke-linecap="round"/>
<path d="M 126.00 166.00 q 4.00 -8.00 0 -16.00" fill="none" stroke="#1966ab" stroke-width="2.00" stroke-linecap="round"/>
<text x="120.0" y="360" text-anchor="middle" font-size="20" font-weight="700" fill="#111111" font-family="Inter, Segoe UI, Arial, sans-serif">Java 1.0</text>
<text x="120.0" y="386" text-anchor="middle" font-size="14" fill="#444444" font-family="Inter, Segoe UI, Arial, sans-serif">1995</text>
<text x="120.0" y="412" text-anchor="middle" font-size="16" fill="#1966ab" font-family="Inter, Segoe UI, Arial, sans-serif">Birth • WORA</text>
<line x1="392.0" y1="282" x2="392.0" y2="318" stroke="#1966ab" stroke-width="3" />
<circle cx="392.0" cy="300" r="10" fill="#ffffff" stroke="#1966ab" stroke-width="3"/>
<rect x="367.00" y="178.00" width="40.00" height="22.00" rx="4.00" fill="none" stroke="#1966ab" stroke-width="2.00"/>
<path d="M 408.00 184.00 q 10.00 6.00 0 12.00" fill="none" stroke="#1966ab" stroke-width="2.00"/>
<path d="M 362.00 202.00 h 60.00" fill="none" stroke="#1966ab" stroke-width="2.00" stroke-linecap="round"/>
<path d="M 374.00 166.00 q 4.00 -8.00 0 -16.00" fill="none" stroke="#1966ab" stroke-width="2.00" stroke-linecap="round"/>
<path d="M 386.00 166.00 q 4.00 -8.00 0 -16.00" fill="none" stroke="#1966ab" stroke-width="2.00" stroke-linecap="round"/>
<path d="M 398.00 166.00 q 4.00 -8.00 0 -16.00" fill="none" stroke="#1966ab" stroke-width="2.00" stroke-linecap="round"/>
<text x="392.0" y="360" text-anchor="middle" font-size="20" font-weight="700" fill="#111111" font-family="Inter, Segoe UI, Arial, sans-serif">Java 5</text>
<text x="392.0" y="386" text-anchor="middle" font-size="14" fill="#444444" font-family="Inter, Segoe UI, Arial, sans-serif">2004</text>
<text x="392.0" y="412" text-anchor="middle" font-size="16" fill="#1966ab" font-family="Inter, Segoe UI, Arial, sans-serif">Generics</text>
<line x1="664.0" y1="282" x2="664.0" y2="318" stroke="#1966ab" stroke-width="3" />
<circle cx="664.0" cy="300" r="10" fill="#ffffff" stroke="#1966ab" stroke-width="3"/>
<rect x="639.00" y="178.00" width="40.00" height="22.00" rx="4.00" fill="none" stroke="#1966ab" stroke-width="2.00"/>
<path d="M 680.00 184.00 q 10.00 6.00 0 12.00" fill="none" stroke="#1966ab" stroke-width="2.00"/>
<path d="M 634.00 202.00 h 60.00" fill="none" stroke="#1966ab" stroke-width="2.00" stroke-linecap="round"/>
<path d="M 646.00 166.00 q 4.00 -8.00 0 -16.00" fill="none" stroke="#1966ab" stroke-width="2.00" stroke-linecap="round"/>
<path d="M 658.00 166.00 q 4.00 -8.00 0 -16.00" fill="none" stroke="#1966ab" stroke-width="2.00" stroke-linecap="round"/>
<path d="M 670.00 166.00 q 4.00 -8.00 0 -16.00" fill="none" stroke="#1966ab" stroke-width="2.00" stroke-linecap="round"/>
<text x="664.0" y="360" text-anchor="middle" font-size="20" font-weight="700" fill="#111111" font-family="Inter, Segoe UI, Arial, sans-serif">Java 8</text>
<text x="664.0" y="386" text-anchor="middle" font-size="14" fill="#444444" font-family="Inter, Segoe UI, Arial, sans-serif">2014</text>
<text x="664.0" y="412" text-anchor="middle" font-size="16" fill="#1966ab" font-family="Inter, Segoe UI, Arial, sans-serif">Lambdas</text>
<line x1="936.0" y1="282" x2="936.0" y2="318" stroke="#1966ab" stroke-width="3" />
<circle cx="936.0" cy="300" r="10" fill="#ffffff" stroke="#1966ab" stroke-width="3"/>
<rect x="911.00" y="178.00" width="40.00" height="22.00" rx="4.00" fill="none" stroke="#1966ab" stroke-width="2.00"/>
<path d="M 952.00 184.00 q 10.00 6.00 0 12.00" fill="none" stroke="#1966ab" stroke-width="2.00"/>
<path d="M 906.00 202.00 h 60.00" fill="none" stroke="#1966ab" stroke-width="2.00" stroke-linecap="round"/>
<path d="M 918.00 166.00 q 4.00 -8.00 0 -16.00" fill="none" stroke="#1966ab" stroke-width="2.00" stroke-linecap="round"/>
<path d="M 930.00 166.00 q 4.00 -8.00 0 -16.00" fill="none" stroke="#1966ab" stroke-width="2.00" stroke-linecap="round"/>
<path d="M 942.00 166.00 q 4.00 -8.00 0 -16.00" fill="none" stroke="#1966ab" stroke-width="2.00" stroke-linecap="round"/>
<text x="936.0" y="360" text-anchor="middle" font-size="20" font-weight="700" fill="#111111" font-family="Inter, Segoe UI, Arial, sans-serif">Java 11</text>
<text x="936.0" y="386" text-anchor="middle" font-size="14" fill="#444444" font-family="Inter, Segoe UI, Arial, sans-serif">2018</text>
<text x="936.0" y="412" text-anchor="middle" font-size="16" fill="#1966ab" font-family="Inter, Segoe UI, Arial, sans-serif">LTS</text>
<line x1="1208.0" y1="282" x2="1208.0" y2="318" stroke="#1966ab" stroke-width="3" />
<circle cx="1208.0" cy="300" r="10" fill="#ffffff" stroke="#1966ab" stroke-width="3"/>
<rect x="1183.00" y="178.00" width="40.00" height="22.00" rx="4.00" fill="none" stroke="#1966ab" stroke-width="2.00"/>
<path d="M 1224.00 184.00 q 10.00 6.00 0 12.00" fill="none" stroke="#1966ab" stroke-width="2.00"/>
<path d="M 1178.00 202.00 h 60.00" fill="none" stroke="#1966ab" stroke-width="2.00" stroke-linecap="round"/>
<path d="M 1190.00 166.00 q 4.00 -8.00 0 -16.00" fill="none" stroke="#1966ab" stroke-width="2.00" stroke-linecap="round"/>
<path d="M 1202.00 166.00 q 4.00 -8.00 0 -16.00" fill="none" stroke="#1966ab" stroke-width="2.00" stroke-linecap="round"/>
<path d="M 1214.00 166.00 q 4.00 -8.00 0 -16.00" fill="none" stroke="#1966ab" stroke-width="2.00" stroke-linecap="round"/>
<text x="1208.0" y="360" text-anchor="middle" font-size="20" font-weight="700" fill="#111111" font-family="Inter, Segoe UI, Arial, sans-serif">Java 17</text>
<text x="1208.0" y="386" text-anchor="middle" font-size="14" fill="#444444" font-family="Inter, Segoe UI, Arial, sans-serif">2021</text>
<text x="1208.0" y="412" text-anchor="middle" font-size="16" fill="#1966ab" font-family="Inter, Segoe UI, Arial, sans-serif">LTS</text>
<line x1="1480.0" y1="282" x2="1480.0" y2="318" stroke="#1966ab" stroke-width="3" />
<circle cx="1480.0" cy="300" r="10" fill="#ffffff" stroke="#1966ab" stroke-width="3"/>
<rect x="1455.00" y="178.00" width="40.00" height="22.00" rx="4.00" fill="none" stroke="#1966ab" stroke-width="2.00"/>
<path d="M 1496.00 184.00 q 10.00 6.00 0 12.00" fill="none" stroke="#1966ab" stroke-width="2.00"/>
<path d="M 1450.00 202.00 h 60.00" fill="none" stroke="#1966ab" stroke-width="2.00" stroke-linecap="round"/>
<path d="M 1462.00 166.00 q 4.00 -8.00 0 -16.00" fill="none" stroke="#1966ab" stroke-width="2.00" stroke-linecap="round"/>
<path d="M 1474.00 166.00 q 4.00 -8.00 0 -16.00" fill="none" stroke="#1966ab" stroke-width="2.00" stroke-linecap="round"/>
<path d="M 1486.00 166.00 q 4.00 -8.00 0 -16.00" fill="none" stroke="#1966ab" stroke-width="2.00" stroke-linecap="round"/>
<text x="1480.0" y="360" text-anchor="middle" font-size="20" font-weight="700" fill="#111111" font-family="Inter, Segoe UI, Arial, sans-serif">Java 21</text>
<text x="1480.0" y="386" text-anchor="middle" font-size="14" fill="#444444" font-family="Inter, Segoe UI, Arial, sans-serif">2023</text>
<text x="1480.0" y="412" text-anchor="middle" font-size="16" fill="#1966ab" font-family="Inter, Segoe UI, Arial, sans-serif">Virtual Threads • LTS</text>
<text x="1580" y="500" text-anchor="end" font-size="12" fill="#444444" font-family="Inter, Segoe UI, Arial, sans-serif">Accent: Sharif Blue #1966ab</text>
</svg>